<mxfile host="65bd71144e">
    <diagram id="FdnxEspeVBcJSeuowBuW" name="Page-1">
        <mxGraphModel dx="581" dy="370" grid="0" gridSize="10" guides="1" tooltips="1" connect="1" arrows="1" fold="1" page="1" pageScale="1" pageWidth="850" pageHeight="1100" math="0" shadow="0">
            <root>
                <mxCell id="0"/>
                <mxCell id="1" parent="0"/>
                <mxCell id="2" value="ID&lt;br&gt;(0000_0000&lt;br&gt;0000_0000)" style="shape=document;whiteSpace=wrap;html=1;boundedLbl=1;fillColor=#D519ED;" vertex="1" parent="1">
                    <mxGeometry x="120" y="40" width="120" height="80" as="geometry"/>
                </mxCell>
                <mxCell id="3" value="ACTION&lt;br&gt;(0000_0000&lt;br&gt;0000_0000)" style="shape=trapezoid;perimeter=trapezoidPerimeter;whiteSpace=wrap;html=1;fixedSize=1;fillColor=#D519ED;" vertex="1" parent="1">
                    <mxGeometry x="120" y="140" width="120" height="60" as="geometry"/>
                </mxCell>
                <mxCell id="5" value="ACTION VALUE/DATA&lt;br&gt;&lt;br&gt;(0000_0000&lt;br&gt;.&lt;br&gt;.&lt;br&gt;.&lt;br&gt;+++)" style="rounded=0;whiteSpace=wrap;html=1;fillColor=#D519ED;" vertex="1" parent="1">
                    <mxGeometry x="120" y="220" width="120" height="160" as="geometry"/>
                </mxCell>
            </root>
        </mxGraphModel>
    </diagram>
</mxfile>